<svg xmlns="http://www.w3.org/2000/svg" viewBox="0 0 1600 1000" fill="none">

  <defs>
    <linearGradient id="bg-about-hero-archive-table" x1="0" y1="0" x2="1600" y2="1000" gradientUnits="userSpaceOnUse">
      <stop offset="0%" stop-color="#191117"/>
      <stop offset="56%" stop-color="#3d2130"/>
      <stop offset="100%" stop-color="#13314d"/>
    </linearGradient>
    <radialGradient id="glow-a-about-hero-archive-table" cx="0" cy="0" r="1" gradientUnits="userSpaceOnUse" gradientTransform="translate(1312 204) rotate(90) scale(170)">
      <stop stop-color="#f0d798" stop-opacity="0.52"/>
      <stop offset="1" stop-color="#f0d798" stop-opacity="0"/>
    </radialGradient>
    <radialGradient id="glow-b-about-hero-archive-table" cx="0" cy="0" r="1" gradientUnits="userSpaceOnUse" gradientTransform="translate(348 188) rotate(90) scale(110)">
      <stop stop-color="#8dd5ee" stop-opacity="0.34"/>
      <stop offset="1" stop-color="#8dd5ee" stop-opacity="0"/>
    </radialGradient>
    <linearGradient id="pitch-about-hero-archive-table" x1="800" y1="640" x2="800" y2="980" gradientUnits="userSpaceOnUse">
      <stop offset="0%" stop-color="#12324a"/>
      <stop offset="100%" stop-color="#091826"/>
    </linearGradient>
    <linearGradient id="paper-about-hero-archive-table" x1="0" y1="0" x2="1" y2="1">
      <stop offset="0%" stop-color="#fcf4e7"/>
      <stop offset="100%" stop-color="#e8dcc5"/>
    </linearGradient>
    <linearGradient id="vignette-about-hero-archive-table" x1="0" y1="0" x2="0" y2="1">
      <stop offset="0%" stop-color="#ffffff" stop-opacity="0.03"/>
      <stop offset="100%" stop-color="#02040a" stop-opacity="0.38"/>
    </linearGradient>
    <pattern id="grid-about-hero-archive-table" width="44" height="44" patternUnits="userSpaceOnUse">
      <path d="M44 0H0V44" fill="none" stroke="rgba(255,255,255,0.08)" stroke-width="1"/>
    </pattern>
    <filter id="blur-about-hero-archive-table" x="-40%" y="-40%" width="180%" height="180%">
      <feGaussianBlur stdDeviation="40"/>
    </filter>
    
  </defs>
  <rect width="1600" height="1000" fill="url(#bg-about-hero-archive-table)"/>
  <rect width="1600" height="1000" fill="url(#grid-about-hero-archive-table)" opacity="0.46"/>
  <rect width="1600" height="1000" fill="url(#vignette-about-hero-archive-table)"/>
  <circle cx="1312" cy="204" r="170" fill="url(#glow-a-about-hero-archive-table)" filter="url(#blur-about-hero-archive-table)"/>
  <circle cx="348" cy="188" r="110" fill="url(#glow-b-about-hero-archive-table)" filter="url(#blur-about-hero-archive-table)"/>
  <rect x="0" y="0" width="1600" height="1000" fill="rgba(34,23,17,0.18)"/><rect x="168" y="126" width="1264" height="748" fill="rgba(69,45,32,0.28)" rx="40" stroke="rgba(248,242,233,0.12)" stroke-width="2"/><path d="M322 330 C444 250 570 224 712 242 C828 258 930 312 1040 410 C1140 498 1232 544 1324 540" fill="none" stroke="rgba(240,217,150,0.34)" stroke-width="7" stroke-linecap="round" stroke-linejoin="round"/><rect x="310" y="262" width="462" height="354" fill="#f0e0c6" rx="22" stroke="rgba(17,25,42,0.12)" stroke-width="2" transform="rotate(-8 541 439)"/><path d="M350 344 H742" fill="none" stroke="rgba(17,25,42,0.14)" stroke-width="2" stroke-linecap="round" stroke-linejoin="round"/><path d="M332 520 L742 454" fill="none" stroke="rgba(19,48,84,0.84)" stroke-width="88" stroke-linecap="round" stroke-linejoin="round" opacity="0.86"/><path d="M332 594 L742 528" fill="none" stroke="rgba(126,22,53,0.88)" stroke-width="88" stroke-linecap="round" stroke-linejoin="round" opacity="0.92"/><rect x="882" y="238" width="286" height="428" fill="#f8efdf" rx="18" stroke="rgba(17,25,42,0.14)" stroke-width="2" transform="rotate(6 1025 452)"/><line x1="924" y1="326" x2="1112" y2="326" stroke="rgba(17,25,42,0.32)" stroke-width="4" stroke-linecap="round" opacity="0.5"/><line x1="924" y1="374" x2="1112" y2="374" stroke="rgba(17,25,42,0.32)" stroke-width="4" stroke-linecap="round" opacity="0.5"/><line x1="924" y1="422" x2="1112" y2="422" stroke="rgba(17,25,42,0.32)" stroke-width="4" stroke-linecap="round" opacity="0.5"/><line x1="924" y1="470" x2="1112" y2="470" stroke="rgba(17,25,42,0.32)" stroke-width="4" stroke-linecap="round" opacity="0.5"/><line x1="924" y1="518" x2="1112" y2="518" stroke="rgba(17,25,42,0.32)" stroke-width="4" stroke-linecap="round" opacity="0.5"/><line x1="924" y1="566" x2="1112" y2="566" stroke="rgba(17,25,42,0.32)" stroke-width="4" stroke-linecap="round" opacity="0.5"/><rect x="1130" y="632" width="202" height="92" fill="rgba(240,217,150,0.82)" rx="20" transform="rotate(-10 1231 678)"/><circle cx="1122" cy="802" r="64" fill="rgba(11,18,35,0.92)" opacity="0.92" stroke="rgba(240,217,150,0.58)" stroke-width="8"/><circle cx="1122" cy="802" r="20" fill="rgba(240,217,150,0.94)" opacity="0.95"/><rect x="972" y="742" width="158" height="18" fill="rgba(248,242,233,0.12)" rx="9"/>
  <rect x="34" y="34" width="1532" height="932" rx="18" stroke="rgba(250,244,236,0.18)" stroke-width="2"/>
  <path d="M62 1180V62H180" stroke="rgba(250,244,236,0.16)" stroke-width="3"/>
  <path d="M1418 62H1538V182" stroke="rgba(250,244,236,0.16)" stroke-width="3"/>
</svg>