<svg xmlns="http://www.w3.org/2000/svg" viewBox="0 0 1600 1000" fill="none">

  <defs>
    <linearGradient id="bg-brief-keep-reading-montjuic-lanterns" x1="0" y1="0" x2="1600" y2="1000" gradientUnits="userSpaceOnUse">
      <stop offset="0%" stop-color="#06101b"/>
      <stop offset="56%" stop-color="#183150"/>
      <stop offset="100%" stop-color="#5c1532"/>
    </linearGradient>
    <radialGradient id="glow-a-brief-keep-reading-montjuic-lanterns" cx="0" cy="0" r="1" gradientUnits="userSpaceOnUse" gradientTransform="translate(1280 186) rotate(90) scale(180)">
      <stop stop-color="#f0d79a" stop-opacity="0.52"/>
      <stop offset="1" stop-color="#f0d79a" stop-opacity="0"/>
    </radialGradient>
    <radialGradient id="glow-b-brief-keep-reading-montjuic-lanterns" cx="0" cy="0" r="1" gradientUnits="userSpaceOnUse" gradientTransform="translate(330 228) rotate(90) scale(110)">
      <stop stop-color="#87d5ef" stop-opacity="0.34"/>
      <stop offset="1" stop-color="#87d5ef" stop-opacity="0"/>
    </radialGradient>
    <linearGradient id="pitch-brief-keep-reading-montjuic-lanterns" x1="800" y1="640" x2="800" y2="980" gradientUnits="userSpaceOnUse">
      <stop offset="0%" stop-color="#12324a"/>
      <stop offset="100%" stop-color="#091826"/>
    </linearGradient>
    <linearGradient id="paper-brief-keep-reading-montjuic-lanterns" x1="0" y1="0" x2="1" y2="1">
      <stop offset="0%" stop-color="#fcf4e7"/>
      <stop offset="100%" stop-color="#e8dcc5"/>
    </linearGradient>
    <linearGradient id="vignette-brief-keep-reading-montjuic-lanterns" x1="0" y1="0" x2="0" y2="1">
      <stop offset="0%" stop-color="#ffffff" stop-opacity="0.03"/>
      <stop offset="100%" stop-color="#02040a" stop-opacity="0.38"/>
    </linearGradient>
    <pattern id="grid-brief-keep-reading-montjuic-lanterns" width="44" height="44" patternUnits="userSpaceOnUse">
      <path d="M44 0H0V44" fill="none" stroke="rgba(255,255,255,0.08)" stroke-width="1"/>
    </pattern>
    <filter id="blur-brief-keep-reading-montjuic-lanterns" x="-40%" y="-40%" width="180%" height="180%">
      <feGaussianBlur stdDeviation="40"/>
    </filter>
    
  </defs>
  <rect width="1600" height="1000" fill="url(#bg-brief-keep-reading-montjuic-lanterns)"/>
  <rect width="1600" height="1000" fill="url(#grid-brief-keep-reading-montjuic-lanterns)" opacity="0.46"/>
  <rect width="1600" height="1000" fill="url(#vignette-brief-keep-reading-montjuic-lanterns)"/>
  <circle cx="1280" cy="186" r="180" fill="url(#glow-a-brief-keep-reading-montjuic-lanterns)" filter="url(#blur-brief-keep-reading-montjuic-lanterns)"/>
  <circle cx="330" cy="228" r="110" fill="url(#glow-b-brief-keep-reading-montjuic-lanterns)" filter="url(#blur-brief-keep-reading-montjuic-lanterns)"/>
  <path d="M0 842 C186 720 314 678 470 648 C642 616 774 612 952 558 C1128 504 1312 392 1600 248 L1600 1000 L0 1000 Z" fill="rgba(8,15,31,0.84)"/><line x1="312" y1="760" x2="312" y2="632" stroke="rgba(248,242,233,0.18)" stroke-width="6" stroke-linecap="round" opacity="0.54"/><circle cx="312" cy="614" r="26" fill="rgba(255,244,214,0.82)" opacity="0.9"/><circle cx="312" cy="614" r="72" fill="rgba(255,244,214,0.18)" filter="url(#blur-brief-keep-reading-montjuic-lanterns)"/><line x1="462" y1="708" x2="462" y2="580" stroke="rgba(248,242,233,0.18)" stroke-width="6" stroke-linecap="round" opacity="0.54"/><circle cx="462" cy="562" r="26" fill="rgba(255,244,214,0.82)" opacity="0.9"/><circle cx="462" cy="562" r="72" fill="rgba(255,244,214,0.18)" filter="url(#blur-brief-keep-reading-montjuic-lanterns)"/><line x1="612" y1="656" x2="612" y2="528" stroke="rgba(248,242,233,0.18)" stroke-width="6" stroke-linecap="round" opacity="0.54"/><circle cx="612" cy="510" r="26" fill="rgba(255,244,214,0.82)" opacity="0.9"/><circle cx="612" cy="510" r="72" fill="rgba(255,244,214,0.18)" filter="url(#blur-brief-keep-reading-montjuic-lanterns)"/><line x1="762" y1="604" x2="762" y2="476" stroke="rgba(248,242,233,0.18)" stroke-width="6" stroke-linecap="round" opacity="0.54"/><circle cx="762" cy="458" r="26" fill="rgba(255,244,214,0.82)" opacity="0.9"/><circle cx="762" cy="458" r="72" fill="rgba(255,244,214,0.18)" filter="url(#blur-brief-keep-reading-montjuic-lanterns)"/><line x1="912" y1="552" x2="912" y2="424" stroke="rgba(248,242,233,0.18)" stroke-width="6" stroke-linecap="round" opacity="0.54"/><circle cx="912" cy="406" r="26" fill="rgba(255,244,214,0.82)" opacity="0.9"/><circle cx="912" cy="406" r="72" fill="rgba(255,244,214,0.18)" filter="url(#blur-brief-keep-reading-montjuic-lanterns)"/><line x1="1062" y1="500" x2="1062" y2="372" stroke="rgba(248,242,233,0.18)" stroke-width="6" stroke-linecap="round" opacity="0.54"/><circle cx="1062" cy="354" r="26" fill="rgba(255,244,214,0.82)" opacity="0.9"/><circle cx="1062" cy="354" r="72" fill="rgba(255,244,214,0.18)" filter="url(#blur-brief-keep-reading-montjuic-lanterns)"/><line x1="1212" y1="448" x2="1212" y2="320" stroke="rgba(248,242,233,0.18)" stroke-width="6" stroke-linecap="round" opacity="0.54"/><circle cx="1212" cy="302" r="26" fill="rgba(255,244,214,0.82)" opacity="0.9"/><circle cx="1212" cy="302" r="72" fill="rgba(255,244,214,0.18)" filter="url(#blur-brief-keep-reading-montjuic-lanterns)"/><path d="M226 954 C336 798 456 706 622 632 C766 566 924 540 1108 490 C1244 454 1388 372 1540 244" fill="none" stroke="rgba(240,217,150,0.78)" stroke-width="7" stroke-linecap="round" stroke-linejoin="round"/><rect x="1048" y="316" width="272" height="112" fill="rgba(12,21,40,0.82)" rx="18" stroke="rgba(240,217,150,0.24)" stroke-width="2"/><path d="M1082 394 C1140 360 1184 346 1238 344 C1288 344 1314 354 1344 376" fill="none" stroke="rgba(240,217,150,0.54)" stroke-width="5" stroke-linecap="round" stroke-linejoin="round"/>
  <rect x="34" y="34" width="1532" height="932" rx="18" stroke="rgba(250,244,236,0.18)" stroke-width="2"/>
  <path d="M62 1180V62H180" stroke="rgba(250,244,236,0.16)" stroke-width="3"/>
  <path d="M1418 62H1538V182" stroke="rgba(250,244,236,0.16)" stroke-width="3"/>
</svg>