<svg xmlns="http://www.w3.org/2000/svg" viewBox="0 0 1600 1000" fill="none">

  <defs>
    <linearGradient id="bg-dispatch-issue-cover-issue-one" x1="0" y1="0" x2="1600" y2="1000" gradientUnits="userSpaceOnUse">
      <stop offset="0%" stop-color="#06101d"/>
      <stop offset="56%" stop-color="#173050"/>
      <stop offset="100%" stop-color="#5d1531"/>
    </linearGradient>
    <radialGradient id="glow-a-dispatch-issue-cover-issue-one" cx="0" cy="0" r="1" gradientUnits="userSpaceOnUse" gradientTransform="translate(800 232) rotate(90) scale(220)">
      <stop stop-color="#f0d99a" stop-opacity="0.52"/>
      <stop offset="1" stop-color="#f0d99a" stop-opacity="0"/>
    </radialGradient>
    <radialGradient id="glow-b-dispatch-issue-cover-issue-one" cx="0" cy="0" r="1" gradientUnits="userSpaceOnUse" gradientTransform="translate(1244 214) rotate(90) scale(110)">
      <stop stop-color="#81d1ea" stop-opacity="0.34"/>
      <stop offset="1" stop-color="#81d1ea" stop-opacity="0"/>
    </radialGradient>
    <linearGradient id="pitch-dispatch-issue-cover-issue-one" x1="800" y1="640" x2="800" y2="980" gradientUnits="userSpaceOnUse">
      <stop offset="0%" stop-color="#12324a"/>
      <stop offset="100%" stop-color="#091826"/>
    </linearGradient>
    <linearGradient id="paper-dispatch-issue-cover-issue-one" x1="0" y1="0" x2="1" y2="1">
      <stop offset="0%" stop-color="#fcf4e7"/>
      <stop offset="100%" stop-color="#e8dcc5"/>
    </linearGradient>
    <linearGradient id="vignette-dispatch-issue-cover-issue-one" x1="0" y1="0" x2="0" y2="1">
      <stop offset="0%" stop-color="#ffffff" stop-opacity="0.03"/>
      <stop offset="100%" stop-color="#02040a" stop-opacity="0.38"/>
    </linearGradient>
    <pattern id="grid-dispatch-issue-cover-issue-one" width="44" height="44" patternUnits="userSpaceOnUse">
      <path d="M44 0H0V44" fill="none" stroke="rgba(255,255,255,0.08)" stroke-width="1"/>
    </pattern>
    <filter id="blur-dispatch-issue-cover-issue-one" x="-40%" y="-40%" width="180%" height="180%">
      <feGaussianBlur stdDeviation="40"/>
    </filter>
    
  </defs>
  <rect width="1600" height="1000" fill="url(#bg-dispatch-issue-cover-issue-one)"/>
  <rect width="1600" height="1000" fill="url(#grid-dispatch-issue-cover-issue-one)" opacity="0.46"/>
  <rect width="1600" height="1000" fill="url(#vignette-dispatch-issue-cover-issue-one)"/>
  <circle cx="800" cy="232" r="220" fill="url(#glow-a-dispatch-issue-cover-issue-one)" filter="url(#blur-dispatch-issue-cover-issue-one)"/>
  <circle cx="1244" cy="214" r="110" fill="url(#glow-b-dispatch-issue-cover-issue-one)" filter="url(#blur-dispatch-issue-cover-issue-one)"/>
  <rect x="182" y="102" width="1236" height="796" fill="rgba(9,15,28,0.58)" rx="32" stroke="rgba(248,242,233,0.14)" stroke-width="2"/><rect x="256" y="164" width="1088" height="668" fill="rgba(7,12,23,0.76)" rx="28"/><circle cx="800" cy="238" r="188" fill="rgba(255,243,214,0.22)" filter="url(#blur-dispatch-issue-cover-issue-one)"/><line x1="566" y1="164" x2="566" y2="286" stroke="rgba(248,242,233,0.18)" stroke-width="7" stroke-linecap="round" opacity="0.8"/><circle cx="566" cy="308" r="18" fill="rgba(255,244,214,0.86)" opacity="0.96"/><line x1="694" y1="164" x2="694" y2="286" stroke="rgba(248,242,233,0.18)" stroke-width="7" stroke-linecap="round" opacity="0.8"/><circle cx="694" cy="308" r="18" fill="rgba(255,244,214,0.86)" opacity="0.96"/><line x1="822" y1="164" x2="822" y2="286" stroke="rgba(248,242,233,0.18)" stroke-width="7" stroke-linecap="round" opacity="0.8"/><circle cx="822" cy="308" r="18" fill="rgba(255,244,214,0.86)" opacity="0.96"/><line x1="950" y1="164" x2="950" y2="286" stroke="rgba(248,242,233,0.18)" stroke-width="7" stroke-linecap="round" opacity="0.8"/><circle cx="950" cy="308" r="18" fill="rgba(255,244,214,0.86)" opacity="0.96"/><line x1="1078" y1="164" x2="1078" y2="286" stroke="rgba(248,242,233,0.18)" stroke-width="7" stroke-linecap="round" opacity="0.8"/><circle cx="1078" cy="308" r="18" fill="rgba(255,244,214,0.86)" opacity="0.96"/><ellipse cx="800" cy="472" rx="390" ry="160" fill="rgba(8,14,29,0.96)" opacity="0.9"/><ellipse cx="800" cy="472" rx="390" ry="160" fill="none" opacity="0.68" stroke="rgba(246, 221, 160, 0.72)" stroke-width="8"/><ellipse cx="800" cy="480" rx="343.2" ry="115.19999999999999" fill="none" opacity="0.24" stroke="rgba(246, 221, 160, 0.72)" stroke-width="3" stroke-dasharray="12 26" stroke-linecap="round"/><ellipse cx="800" cy="494" rx="273.0" ry="73.60000000000001" fill="none" opacity="0.22" stroke="rgba(120,23,49,0.46)" stroke-width="18"/><ellipse cx="800" cy="426" rx="366.59999999999997" ry="80.0" fill="none" opacity="0.34" stroke="rgba(255,255,255,0.06)" stroke-width="6" stroke-dasharray="4 22" stroke-linecap="round"/><ellipse cx="800" cy="444" rx="320.59999999999997" ry="66.0" fill="none" opacity="0.34" stroke="rgba(255,255,255,0.06)" stroke-width="6" stroke-dasharray="4 22" stroke-linecap="round"/><ellipse cx="800" cy="462" rx="274.59999999999997" ry="52.0" fill="none" opacity="0.34" stroke="rgba(255,255,255,0.06)" stroke-width="6" stroke-dasharray="4 22" stroke-linecap="round"/><ellipse cx="800" cy="480" rx="228.59999999999997" ry="38.0" fill="none" opacity="0.34" stroke="rgba(255,255,255,0.06)" stroke-width="6" stroke-dasharray="4 22" stroke-linecap="round"/><ellipse cx="800" cy="498" rx="182.59999999999997" ry="24.0" fill="none" opacity="0.34" stroke="rgba(255,255,255,0.06)" stroke-width="6" stroke-dasharray="4 22" stroke-linecap="round"/><polygon points="590,514 1010,514 1080,930 520,930" fill="url(#pitch-dispatch-issue-cover-issue-one)" opacity="0.96"/><polygon points="590,514 1010,514 1080,930 520,930" fill="none" stroke="rgba(240, 217, 150, 0.42)" stroke-width="3"/><line x1="800.0" y1="528" x2="800.0" y2="902" stroke="rgba(240, 217, 150, 0.42)" stroke-width="3" stroke-linecap="round" opacity="0.5"/><circle cx="800.0" cy="734.0" r="74" fill="none" stroke="rgba(240, 217, 150, 0.42)" stroke-width="3"/><path d="M660 642 Q785 728 710 868" fill="none" stroke="rgba(240, 217, 150, 0.42)" stroke-width="3" stroke-linecap="round" stroke-linejoin="round"/><path d="M940 642 Q815 728 890 868" fill="none" stroke="rgba(240, 217, 150, 0.42)" stroke-width="3" stroke-linecap="round" stroke-linejoin="round"/><path d="M516 620 C642 582 738 566 806 566 C894 566 972 592 1082 654" fill="none" stroke="rgba(240,217,150,0.84)" stroke-width="6" stroke-linecap="round" stroke-linejoin="round" stroke-dasharray="14 16"/><circle cx="568" cy="620" r="12" fill="#f0d898" opacity="0.94"/><circle cx="680" cy="586" r="12" fill="#f0d898" opacity="0.94"/><circle cx="806" cy="566" r="12" fill="#f0d898" opacity="0.94"/><circle cx="932" cy="604" r="12" fill="#f0d898" opacity="0.94"/><circle cx="1040" cy="650" r="12" fill="#f0d898" opacity="0.94"/>
  <rect x="34" y="34" width="1532" height="932" rx="18" stroke="rgba(250,244,236,0.18)" stroke-width="2"/>
  <path d="M62 1180V62H180" stroke="rgba(250,244,236,0.16)" stroke-width="3"/>
  <path d="M1418 62H1538V182" stroke="rgba(250,244,236,0.16)" stroke-width="3"/>
</svg>