<svg xmlns="http://www.w3.org/2000/svg" viewBox="0 0 1600 1000" fill="none">

  <defs>
    <linearGradient id="bg-home-week-romantics-ritual" x1="0" y1="0" x2="1600" y2="1000" gradientUnits="userSpaceOnUse">
      <stop offset="0%" stop-color="#091224"/>
      <stop offset="56%" stop-color="#1c3157"/>
      <stop offset="100%" stop-color="#66163a"/>
    </linearGradient>
    <radialGradient id="glow-a-home-week-romantics-ritual" cx="0" cy="0" r="1" gradientUnits="userSpaceOnUse" gradientTransform="translate(1234 242) rotate(90) scale(210)">
      <stop stop-color="#f0d99a" stop-opacity="0.52"/>
      <stop offset="1" stop-color="#f0d99a" stop-opacity="0"/>
    </radialGradient>
    <radialGradient id="glow-b-home-week-romantics-ritual" cx="0" cy="0" r="1" gradientUnits="userSpaceOnUse" gradientTransform="translate(280 282) rotate(90) scale(130)">
      <stop stop-color="#78c6e6" stop-opacity="0.34"/>
      <stop offset="1" stop-color="#78c6e6" stop-opacity="0"/>
    </radialGradient>
    <linearGradient id="pitch-home-week-romantics-ritual" x1="800" y1="640" x2="800" y2="980" gradientUnits="userSpaceOnUse">
      <stop offset="0%" stop-color="#12324a"/>
      <stop offset="100%" stop-color="#091826"/>
    </linearGradient>
    <linearGradient id="paper-home-week-romantics-ritual" x1="0" y1="0" x2="1" y2="1">
      <stop offset="0%" stop-color="#fcf4e7"/>
      <stop offset="100%" stop-color="#e8dcc5"/>
    </linearGradient>
    <linearGradient id="vignette-home-week-romantics-ritual" x1="0" y1="0" x2="0" y2="1">
      <stop offset="0%" stop-color="#ffffff" stop-opacity="0.03"/>
      <stop offset="100%" stop-color="#02040a" stop-opacity="0.38"/>
    </linearGradient>
    <pattern id="grid-home-week-romantics-ritual" width="44" height="44" patternUnits="userSpaceOnUse">
      <path d="M44 0H0V44" fill="none" stroke="rgba(255,255,255,0.08)" stroke-width="1"/>
    </pattern>
    <filter id="blur-home-week-romantics-ritual" x="-40%" y="-40%" width="180%" height="180%">
      <feGaussianBlur stdDeviation="40"/>
    </filter>
    
  </defs>
  <rect width="1600" height="1000" fill="url(#bg-home-week-romantics-ritual)"/>
  <rect width="1600" height="1000" fill="url(#grid-home-week-romantics-ritual)" opacity="0.46"/>
  <rect width="1600" height="1000" fill="url(#vignette-home-week-romantics-ritual)"/>
  <circle cx="1234" cy="242" r="210" fill="url(#glow-a-home-week-romantics-ritual)" filter="url(#blur-home-week-romantics-ritual)"/>
  <circle cx="280" cy="282" r="130" fill="url(#glow-b-home-week-romantics-ritual)" filter="url(#blur-home-week-romantics-ritual)"/>
  <polygon points="120,146 1480,146 1410,294 190,294" fill="rgba(122,22,49,0.88)" opacity="0.9"/><polygon points="240,164 1360,164 1300,284 300,284" fill="rgba(20,50,90,0.92)" opacity="0.82"/><path d="M0 794 C116 760 210 700 334 672 C484 638 632 676 790 700 C968 726 1146 706 1328 654 C1444 620 1542 578 1600 538 L1600 1000 L0 1000 Z" fill="rgba(8,14,29,0.86)"/><rect x="140" y="554.0" width="28" height="190.0" fill="rgba(13,22,43,0.98)" rx="12"/><circle cx="154" cy="546.0" r="22" fill="rgba(13,22,43,0.98)"/><rect x="260" y="614.0" width="28" height="130.0" fill="rgba(13,22,43,0.98)" rx="12"/><circle cx="274" cy="606.0" r="22" fill="rgba(13,22,43,0.98)"/><rect x="380" y="554.0" width="28" height="190.0" fill="rgba(13,22,43,0.98)" rx="12"/><circle cx="394" cy="546.0" r="22" fill="rgba(13,22,43,0.98)"/><rect x="500" y="614.0" width="28" height="130.0" fill="rgba(13,22,43,0.98)" rx="12"/><circle cx="514" cy="606.0" r="22" fill="rgba(13,22,43,0.98)"/><rect x="620" y="554.0" width="28" height="190.0" fill="rgba(13,22,43,0.98)" rx="12"/><circle cx="634" cy="546.0" r="22" fill="rgba(13,22,43,0.98)"/><rect x="740" y="614.0" width="28" height="130.0" fill="rgba(13,22,43,0.98)" rx="12"/><circle cx="754" cy="606.0" r="22" fill="rgba(13,22,43,0.98)"/><rect x="860" y="554.0" width="28" height="190.0" fill="rgba(13,22,43,0.98)" rx="12"/><circle cx="874" cy="546.0" r="22" fill="rgba(13,22,43,0.98)"/><rect x="980" y="614.0" width="28" height="130.0" fill="rgba(13,22,43,0.98)" rx="12"/><circle cx="994" cy="606.0" r="22" fill="rgba(13,22,43,0.98)"/><rect x="1100" y="554.0" width="28" height="190.0" fill="rgba(13,22,43,0.98)" rx="12"/><circle cx="1114" cy="546.0" r="22" fill="rgba(13,22,43,0.98)"/><rect x="1220" y="614.0" width="28" height="130.0" fill="rgba(13,22,43,0.98)" rx="12"/><circle cx="1234" cy="606.0" r="22" fill="rgba(13,22,43,0.98)"/><rect x="1340" y="554.0" width="28" height="190.0" fill="rgba(13,22,43,0.98)" rx="12"/><circle cx="1354" cy="546.0" r="22" fill="rgba(13,22,43,0.98)"/><rect x="1460" y="614.0" width="28" height="130.0" fill="rgba(13,22,43,0.98)" rx="12"/><circle cx="1474" cy="606.0" r="22" fill="rgba(13,22,43,0.98)"/><path d="M336 552 C558 592 822 596 1068 550 C1192 526 1300 482 1406 416" fill="none" stroke="rgba(240,217,150,0.82)" stroke-width="5" stroke-linecap="round" stroke-linejoin="round"/><path d="M446 372 C612 462 786 510 986 516" fill="none" stroke="rgba(125,201,231,0.5)" stroke-width="6" stroke-linecap="round" stroke-linejoin="round" stroke-dasharray="12 18"/><circle cx="1226" cy="246" r="144" fill="rgba(255,242,211,0.18)" filter="url(#blur-home-week-romantics-ritual)"/><circle cx="1226" cy="246" r="44" fill="rgba(255,242,211,0.88)" opacity="0.92"/><rect x="132" y="214" width="246" height="16" fill="rgba(248,242,233,0.12)" rx="8"/>
  <rect x="34" y="34" width="1532" height="932" rx="18" stroke="rgba(250,244,236,0.18)" stroke-width="2"/>
  <path d="M62 1180V62H180" stroke="rgba(250,244,236,0.16)" stroke-width="3"/>
  <path d="M1418 62H1538V182" stroke="rgba(250,244,236,0.16)" stroke-width="3"/>
</svg>